<?xml version="1.0" encoding="UTF-8"?>
<svg width="360px" height="34px" viewBox="0 0 360 34" version="1.1" xmlns="http://www.w3.org/2000/svg" xmlns:xlink="http://www.w3.org/1999/xlink">
    <!-- Generator: Sketch 53.2 (72643) - https://sketchapp.com -->
    <title>AFFINITY_ID_Logo_Black_24_07_18</title>
    <desc>Created with Sketch.</desc>
    <g id="Page-1" stroke="none" stroke-width="1" fill="none" fill-rule="evenodd">
        <g id="01---desktop-employee-register---home" transform="translate(-310.000000, -68.000000)" fill="#000000" fill-rule="nonzero">
            <g id="AFFINITY_ID_Logo_Black_24_07_18" transform="translate(310.000000, 68.000000)">
                <path d="M14.5003849,0 L19.630485,0 L34,34 L27.2209392,34 L24.1062356,26.2072214 L9.65819861,26.2072214 L6.64819092,34 L0,34 L14.5003849,0 Z M22.0384911,21.0298273 L16.9083911,7.20565149 L11.6735951,21.0298273 L22.0384911,21.0298273 Z" id="Shape"></path>
                <polygon id="Path" points="47 0 69 0 69 5.47095761 53.0680437 5.47095761 53.0680437 14.411303 65.417983 14.411303 65.417983 19.8822606 53.0680437 19.8822606 53.0680437 34 47 34"></polygon>
                <polygon id="Path" points="83 0 105 0 105 5.47095761 89.0680437 5.47095761 89.0680437 14.411303 101.417983 14.411303 101.417983 19.8822606 89.0680437 19.8822606 89.0680437 34 83 34"></polygon>
                <polygon id="Path" points="120 2.66875981 126 0 126 34 120 34"></polygon>
                <polygon id="Path" points="144 0 149.874046 0 165.151718 23.2982732 165.151718 0 171 0 171 34 165.306298 34 149.822519 10.7017268 149.822519 34 144 34"></polygon>
                <polygon id="Path" points="188 2.66875981 194 0 194 34 188 34"></polygon>
                <polygon id="Path" points="218.446429 5.47095761 208 5.47095761 208 0 235 0 235 5.47095761 224.526786 5.47095761 224.526786 34 218.446429 34"></polygon>
                <polygon id="Path" points="255.541385 19.455259 243 0 250.435811 0 258.630912 13.5306122 266.930743 0 274 0 261.458615 19.455259 261.458615 34 255.541385 34"></polygon>
                <polygon id="Path" points="307 2.66875981 313 0 313 34 307 34"></polygon>
                <path d="M330,0 L343.095652,0 C345.286957,0 347.4,0.346666667 349.434783,1.04 C351.469565,1.73333333 353.269565,2.77333333 354.834783,4.18666667 C356.4,5.6 357.652174,7.36 358.591304,9.49333333 C359.530435,11.6266667 360,14.1333333 360,17.0133333 C360,19.92 359.452174,22.4533333 358.382609,24.56 C357.313043,26.6933333 355.904348,28.4533333 354.208696,29.84 C352.513043,31.2266667 350.608696,32.2666667 348.521739,32.96 C346.434783,33.6533333 344.4,34 342.391304,34 L330,34 L330,0 L330,0 Z M340.330435,28.5066667 C342.182609,28.5066667 343.930435,28.2933333 345.573913,27.8666667 C347.217391,27.44 348.652174,26.7733333 349.878261,25.84 C351.104348,24.9333333 352.069565,23.7333333 352.773913,22.2933333 C353.478261,20.8266667 353.843478,19.0666667 353.843478,16.9866667 C353.843478,14.9333333 353.530435,13.1733333 352.904348,11.7066667 C352.278261,10.24 351.417391,9.04 350.295652,8.13333333 C349.173913,7.22666667 347.869565,6.56 346.356522,6.10666667 C344.843478,5.68 343.173913,5.46666667 341.347826,5.46666667 L335.947826,5.46666667 L335.947826,28.5066667 L340.330435,28.5066667 L340.330435,28.5066667 Z" id="Shape"></path>
            </g>
        </g>
    </g>
</svg>